HIERARCHY
ROOT Hips
{
	OFFSET 0.000000 71.427986 0.000000
	CHANNELS 6 Xposition Yposition Zposition Xrotation Yrotation Zrotation
	JOINT Pelvis
	{
		OFFSET 0.000000 0.000000 0.000000
		CHANNELS 3 Xrotation Yrotation Zrotation
		JOINT LeftUpLeg
		{
			OFFSET 6.797100 -2.508499 -1.318700
			CHANNELS 3 Xrotation Yrotation Zrotation
			JOINT LeftLeg
			{
				OFFSET 0.069008 -29.241863 0.690200
				CHANNELS 3 Xrotation Yrotation Zrotation
				JOINT LeftFoot
				{
					OFFSET -0.069008 -29.568123 -0.266800
					CHANNELS 3 Xrotation Yrotation Zrotation
					JOINT LeftToeBase
					{
						OFFSET 3.145500 -8.631000 16.059900
						CHANNELS 3 Xrotation Yrotation Zrotation
						End Site
						{
							OFFSET 0.000000 18.501587 0.000000
						}
					}
				}
			}
			JOINT Left_ShortSleeve
			{
				OFFSET 0.265923 -10.480953 1.153800
				CHANNELS 3 Xrotation Yrotation Zrotation
				End Site
				{
					OFFSET 1.725763 19.823879 0.000000
				}
			}
		}
		JOINT RightUpLeg
		{
			OFFSET -6.797100 -2.508499 -1.318700
			CHANNELS 3 Xrotation Yrotation Zrotation
			JOINT RightLeg
			{
				OFFSET -0.082453 -29.241932 0.688000
				CHANNELS 3 Xrotation Yrotation Zrotation
				JOINT RightFoot
				{
					OFFSET 0.082453 -29.568058 -0.264600
					CHANNELS 3 Xrotation Yrotation Zrotation
					JOINT RightToeBase
					{
						OFFSET -3.115300 -8.682800 16.113400
						CHANNELS 3 Xrotation Yrotation Zrotation
						End Site
						{
							OFFSET 0.000000 18.567114 0.000000
						}
					}
				}
			}
			JOINT Right_ShortSleeve
			{
				OFFSET -0.265923 -10.480953 1.153800
				CHANNELS 3 Xrotation Yrotation Zrotation
				End Site
				{
					OFFSET -1.725766 19.823910 0.000000
				}
			}
		}
	}
	JOINT Spine
	{
		OFFSET 0.000000 13.368103 0.470500
		CHANNELS 3 Xrotation Yrotation Zrotation
		JOINT Spine1
		{
			OFFSET 0.147000 13.837402 0.538800
			CHANNELS 3 Xrotation Yrotation Zrotation
			JOINT Spine2
			{
				OFFSET 0.168000 16.242897 -1.435500
				CHANNELS 3 Xrotation Yrotation Zrotation
				JOINT Neck
				{
					OFFSET 0.217200 18.631500 -1.679100
					CHANNELS 3 Xrotation Yrotation Zrotation
					JOINT Head
					{
						OFFSET 0.000000 6.599396 1.385900
						CHANNELS 3 Xrotation Yrotation Zrotation
						JOINT Hat
						{
							OFFSET -0.532200 27.220596 -10.096100
							CHANNELS 3 Xrotation Yrotation Zrotation
							End Site
							{
								OFFSET 0.000000 22.029861 0.000000
							}
						}
						JOINT HairD
						{
							OFFSET -10.777400 17.437393 -1.325900
							CHANNELS 3 Xrotation Yrotation Zrotation
							JOINT HairD1
							{
								OFFSET -3.290299 -11.051193 1.062200
								CHANNELS 3 Xrotation Yrotation Zrotation
								End Site
								{
									OFFSET 0.000000 11.579437 0.000000
								}
							}
						}
						JOINT HairB
						{
							OFFSET -10.777400 17.437393 1.467900
							CHANNELS 3 Xrotation Yrotation Zrotation
							JOINT HairB1
							{
								OFFSET -1.561200 -12.956299 3.590200
								CHANNELS 3 Xrotation Yrotation Zrotation
								End Site
								{
									OFFSET 0.000000 13.534866 0.000000
								}
							}
						}
						JOINT HairA
						{
							OFFSET 9.713100 17.437393 1.467900
							CHANNELS 3 Xrotation Yrotation Zrotation
							JOINT HairA1
							{
								OFFSET 1.561200 -12.956299 3.590200
								CHANNELS 3 Xrotation Yrotation Zrotation
								End Site
								{
									OFFSET 0.000000 13.534866 0.000000
								}
							}
						}
						JOINT HairC
						{
							OFFSET 9.713100 17.437393 -1.325900
							CHANNELS 3 Xrotation Yrotation Zrotation
							JOINT HairC1
							{
								OFFSET 3.290300 -11.051193 1.062200
								CHANNELS 3 Xrotation Yrotation Zrotation
								End Site
								{
									OFFSET 0.000000 11.579437 0.000000
								}
							}
						}
					}
				}
				JOINT LeftShoulder
				{
					OFFSET 5.101800 15.108002 -2.763700
					CHANNELS 3 Xrotation Yrotation Zrotation
					JOINT LeftArm
					{
						OFFSET 9.825497 2.506317 -1.597400
						CHANNELS 3 Xrotation Yrotation Zrotation
						JOINT LeftForeArm
						{
							OFFSET 21.966244 0.000000 0.000000
							CHANNELS 3 Xrotation Yrotation Zrotation
							JOINT LeftHand
							{
								OFFSET 33.879036 0.000000 0.000000
								CHANNELS 3 Xrotation Yrotation Zrotation
								JOINT LeftHandThumb1
								{
									OFFSET 6.715286 -2.359680 3.363841
									CHANNELS 3 Xrotation Yrotation Zrotation
									JOINT LeftHandThumb2
									{
										OFFSET 2.507072 -1.447464 1.447461
										CHANNELS 3 Xrotation Yrotation Zrotation
										JOINT LeftHandThumb3
										{
											OFFSET 2.898338 -1.673355 1.673357
											CHANNELS 3 Xrotation Yrotation Zrotation
											End Site
											{
												OFFSET -0.295959 3.727692 -0.131651
											}
										}
									}
								}
								JOINT LeftHandIndex1
								{
									OFFSET 14.190811 -0.254547 3.840278
									CHANNELS 3 Xrotation Yrotation Zrotation
									JOINT LeftHandIndex2
									{
										OFFSET 3.551727 0.000000 -0.000000
										CHANNELS 3 Xrotation Yrotation Zrotation
										JOINT LeftHandIndex3
										{
											OFFSET 2.894196 0.000000 0.000000
											CHANNELS 3 Xrotation Yrotation Zrotation
											End Site
											{
												OFFSET -1.000603 2.690872 0.366626
											}
										}
									}
								}
								JOINT LeftHandMiddle1
								{
									OFFSET 13.776489 0.000000 0.000000
									CHANNELS 3 Xrotation Yrotation Zrotation
									JOINT LeftHandMiddle2
									{
										OFFSET 3.438232 0.000000 0.000000
										CHANNELS 3 Xrotation Yrotation Zrotation
										JOINT LeftHandMiddle3
										{
											OFFSET 3.691551 0.000000 0.000000
											CHANNELS 3 Xrotation Yrotation Zrotation
											End Site
											{
												OFFSET -1.082298 3.499527 0.457670
											}
										}
									}
								}
								JOINT LeftHandRing1
								{
									OFFSET 13.966164 -0.268127 -3.067488
									CHANNELS 3 Xrotation Yrotation Zrotation
									JOINT LeftHandRing2
									{
										OFFSET 3.162567 0.000000 0.000000
										CHANNELS 3 Xrotation Yrotation Zrotation
										JOINT LeftHandRing3
										{
											OFFSET 3.324348 0.000000 0.000000
											CHANNELS 3 Xrotation Yrotation Zrotation
											End Site
											{
												OFFSET -0.861900 3.184998 0.405154
											}
										}
									}
								}
								JOINT LeftHandPinky1
								{
									OFFSET 13.131393 -0.168503 -5.746925
									CHANNELS 3 Xrotation Yrotation Zrotation
									JOINT LeftHandPinky2
									{
										OFFSET 2.849182 0.000000 0.000000
										CHANNELS 3 Xrotation Yrotation Zrotation
										JOINT LeftHandPinky3
										{
											OFFSET 2.805038 0.000000 0.000000
											CHANNELS 3 Xrotation Yrotation Zrotation
											End Site
											{
												OFFSET -0.882500 2.642609 0.325652
											}
										}
									}
								}
							}
							JOINT Left_Sleeve
							{
								OFFSET 6.592125 -0.646545 0.805568
								CHANNELS 3 Xrotation Yrotation Zrotation
								End Site
								{
									OFFSET -0.000179 20.275787 -0.000000
								}
							}
						}
					}
				}
				JOINT RightShoulder
				{
					OFFSET -5.731700 15.108002 -2.763700
					CHANNELS 3 Xrotation Yrotation Zrotation
					JOINT RightArm
					{
						OFFSET -9.825497 2.506317 -1.597400
						CHANNELS 3 Xrotation Yrotation Zrotation
						JOINT RightForeArm
						{
							OFFSET -21.966242 0.000000 0.000000
							CHANNELS 3 Xrotation Yrotation Zrotation
							JOINT RightHand
							{
								OFFSET -33.879032 0.000000 0.000000
								CHANNELS 3 Xrotation Yrotation Zrotation
								JOINT RightHandThumb1
								{
									OFFSET -6.715286 -2.359680 3.363841
									CHANNELS 3 Xrotation Yrotation Zrotation
									JOINT RightHandThumb2
									{
										OFFSET -2.507072 -1.447464 1.447461
										CHANNELS 3 Xrotation Yrotation Zrotation
										JOINT RightHandThumb3
										{
											OFFSET -2.898338 -1.673355 1.673357
											CHANNELS 3 Xrotation Yrotation Zrotation
											End Site
											{
												OFFSET 0.295959 3.727692 -0.131651
											}
										}
									}
								}
								JOINT RightHandIndex1
								{
									OFFSET -14.190811 -0.254547 3.840278
									CHANNELS 3 Xrotation Yrotation Zrotation
									JOINT RightHandIndex2
									{
										OFFSET -3.551727 0.000000 -0.000000
										CHANNELS 3 Xrotation Yrotation Zrotation
										JOINT RightHandIndex3
										{
											OFFSET -2.894196 0.000000 0.000000
											CHANNELS 3 Xrotation Yrotation Zrotation
											End Site
											{
												OFFSET 1.000603 2.690872 0.366626
											}
										}
									}
								}
								JOINT RightHandMiddle1
								{
									OFFSET -13.776489 0.000000 0.000000
									CHANNELS 3 Xrotation Yrotation Zrotation
									JOINT RightHandMiddle2
									{
										OFFSET -3.438232 0.000000 0.000000
										CHANNELS 3 Xrotation Yrotation Zrotation
										JOINT RightHandMiddle3
										{
											OFFSET -3.691551 0.000000 0.000000
											CHANNELS 3 Xrotation Yrotation Zrotation
											End Site
											{
												OFFSET 1.082298 3.499527 0.457670
											}
										}
									}
								}
								JOINT RightHandRing1
								{
									OFFSET -13.966164 -0.268127 -3.067488
									CHANNELS 3 Xrotation Yrotation Zrotation
									JOINT RightHandRing2
									{
										OFFSET -3.162567 0.000000 0.000000
										CHANNELS 3 Xrotation Yrotation Zrotation
										JOINT RightHandRing3
										{
											OFFSET -3.324348 0.000000 0.000000
											CHANNELS 3 Xrotation Yrotation Zrotation
											End Site
											{
												OFFSET 0.861900 3.184998 0.405154
											}
										}
									}
								}
								JOINT RightHandPinky1
								{
									OFFSET -13.131393 -0.168503 -5.746925
									CHANNELS 3 Xrotation Yrotation Zrotation
									JOINT RightHandPinky2
									{
										OFFSET -2.849182 0.000000 0.000000
										CHANNELS 3 Xrotation Yrotation Zrotation
										JOINT RightHandPinky3
										{
											OFFSET -2.805038 0.000000 0.000000
											CHANNELS 3 Xrotation Yrotation Zrotation
											End Site
											{
												OFFSET 0.882500 2.642609 0.325652
											}
										}
									}
								}
							}
							JOINT Right_Sleeve
							{
								OFFSET -6.592125 -0.646545 0.805568
								CHANNELS 3 Xrotation Yrotation Zrotation
								End Site
								{
									OFFSET 0.000179 20.275787 -0.000000
								}
							}
						}
					}
				}
				JOINT Bind_Right_JacketString
				{
					OFFSET -3.534800 11.969597 7.200700
					CHANNELS 3 Xrotation Yrotation Zrotation
					JOINT Bind_Right_JacketString1
					{
						OFFSET -0.319900 -6.102600 2.794100
						CHANNELS 3 Xrotation Yrotation Zrotation
						End Site
						{
							OFFSET 0.000000 6.719452 0.000000
						}
					}
				}
				JOINT Bind_Left_JacketString
				{
					OFFSET 2.904800 11.969597 7.200700
					CHANNELS 3 Xrotation Yrotation Zrotation
					JOINT Bind_Left_JacketString1
					{
						OFFSET 0.364800 -5.904503 3.186800
						CHANNELS 3 Xrotation Yrotation Zrotation
						End Site
						{
							OFFSET 0.000000 6.719513 0.000000
						}
					}
				}
				JOINT HairE
				{
					OFFSET 5.915200 17.612701 -11.592200
					CHANNELS 3 Xrotation Yrotation Zrotation
					JOINT HairE1
					{
						OFFSET 0.289200 -7.171898 -1.284500
						CHANNELS 3 Xrotation Yrotation Zrotation
						End Site
						{
							OFFSET 0.000000 7.291756 0.000000
						}
					}
				}
				JOINT HairF
				{
					OFFSET -0.864800 17.612701 -11.592200
					CHANNELS 3 Xrotation Yrotation Zrotation
					JOINT HairF1
					{
						OFFSET 0.000000 -14.087097 -2.127501
						CHANNELS 3 Xrotation Yrotation Zrotation
						End Site
						{
							OFFSET 0.000000 14.246841 0.000000
						}
					}
				}
				JOINT HairG
				{
					OFFSET -8.087700 17.612701 -11.592200
					CHANNELS 3 Xrotation Yrotation Zrotation
					JOINT HairG1
					{
						OFFSET -0.293600 -6.081398 -0.910100
						CHANNELS 3 Xrotation Yrotation Zrotation
						End Site
						{
							OFFSET 0.000000 6.156120 0.000000
						}
					}
				}
			}
		}
	}
	JOINT Pouch
	{
		OFFSET 0.000000 4.394501 10.847300
		CHANNELS 3 Xrotation Yrotation Zrotation
		End Site
		{
			OFFSET 0.000000 21.880577 0.000000
		}
	}
	JOINT Bag
	{
		OFFSET -13.229000 4.813004 -0.593300
		CHANNELS 3 Xrotation Yrotation Zrotation
		End Site
		{
			OFFSET 0.000000 21.880577 0.000000
		}
	}
	JOINT OccupyGuyFacialAnim_Joint
	{
		OFFSET 1.000000 -70.206398 -1.655000
		CHANNELS 3 Xrotation Yrotation Zrotation
		End Site
		{
			OFFSET 0.000000 21.880577 0.000000
		}
	}
}
MOTION
Frames: 4
Frame Time: 0.033333
1.715367 69.168694 3.508472 7.320133 1.672943 -1.893357 -0.000001 -0.000000 0.000000 -21.038719 9.926137 2.534369 29.932167 -0.224504 0.998197 -16.706856 -0.058758 0.625518 0.000000 0.000000 0.000000 0.000002 0.000000 0.000001 -23.278398 -6.791885 -5.154381 33.029699 -10.359219 1.348102 -11.038136 -11.575827 7.215234 -0.000000 0.000001 0.000000 0.000002 0.000000 -0.000000 5.789110 2.930028 0.574816 3.216322 1.514235 0.374242 3.216602 1.508725 0.390478 -0.218947 0.019638 -6.891700 -16.412209 -4.547789 -7.994993 -0.000000 0.000000 -0.000001 -0.000000 0.000000 -0.000001 -0.000000 0.000000 -0.000000 -0.000000 0.000000 -0.000001 -0.000000 0.000000 -0.000001 -0.000000 0.000000 -0.000001 -0.000000 0.000000 -0.000001 -0.000000 0.000000 -0.000001 -0.000000 0.000000 -0.000001 0.655850 3.679828 -10.758391 -11.265332 6.244702 -71.930901 0.000002 -6.492685 0.000036 43.949730 -1.187381 6.386979 -6.027663 4.964835 5.629633 19.072058 24.143139 0.166916 -0.000001 -0.000001 0.000003 0.508147 4.443965 -7.013880 0.201547 1.656984 -13.869174 0.000002 0.000001 -0.000002 1.601709 4.750364 -27.597907 0.172411 1.534237 -12.823011 0.000006 0.000000 -0.000001 2.516063 5.624068 -37.282584 0.347724 2.164447 -18.251066 -0.000002 0.000000 0.000002 4.982538 7.041126 -55.457478 0.640408 -1.170218 -25.189222 0.000001 0.000001 0.000003 -0.000001 0.000001 -0.000001 0.885500 22.135058 7.891533 -39.399557 -26.438967 47.971909 0.000005 28.581546 -0.000005 51.519936 13.889834 -5.533972 -3.529746 -21.199208 -8.223056 9.792067 -12.396789 2.753748 -0.000002 -0.000002 -0.000003 0.694412 4.414963 -10.221132 0.070916 -0.992545 8.173059 -0.000001 0.000001 -0.000003 4.837201 -6.699172 64.084912 7.276862 -6.940478 92.717598 0.000001 -0.000001 -0.000001 6.932689 -6.957967 86.817223 7.316823 -6.938514 93.048357 0.000001 -0.000001 0.000002 3.544268 -6.790044 87.181552 5.555456 -6.807881 78.408973 0.000000 -0.000002 0.000000 -0.000000 0.000003 -0.000002 -0.000002 -0.000000 -0.000000 -0.000002 0.000001 -0.000000 -0.000002 -0.000000 -0.000000 -0.000002 -0.000000 -0.000000 -0.000002 -0.000000 -0.000000 -0.000002 0.000001 -0.000000 -0.000002 -0.000000 -0.000000 -0.000002 -0.000000 -0.000000 -0.000002 -0.000000 -0.000000 -0.000002 0.000001 -0.000000 -0.000001 -0.000000 0.000000 -0.000001 -0.000000 0.000000 -0.000001 -0.000000 0.000000 
1.881439 69.166824 3.726402 6.605451 1.056185 -2.297417 -0.000000 -0.000000 0.000000 -20.344832 10.256469 3.077698 30.417527 -0.098462 0.883138 -17.296546 -0.085762 0.739902 -0.000000 -0.000000 -0.000000 -0.000001 0.000001 -0.000000 -22.774094 -6.958141 -4.991206 33.607816 -10.406711 1.422692 -10.795531 -10.838325 7.515287 0.000000 0.000000 -0.000000 -0.000001 -0.000001 -0.000001 5.486096 2.725664 0.367140 3.049194 1.411116 0.256646 3.050232 1.405404 0.271150 -0.641818 -0.373113 -7.559997 -16.331186 -7.219772 -9.049050 -0.000000 0.000000 -0.000000 -0.000000 0.000000 -0.000000 -0.000000 0.000000 -0.000001 -0.000000 0.000000 -0.000000 -0.000000 0.000000 -0.000002 -0.000000 0.000000 -0.000000 -0.000000 0.000000 -0.000002 -0.000000 0.000000 -0.000000 -0.000000 0.000000 -0.000000 0.643379 3.472564 -10.584272 -10.568387 6.504172 -71.530973 -0.000001 -6.483492 -0.000026 44.077984 -0.738219 6.251148 -5.989516 5.041538 5.487499 19.059923 24.099901 0.174485 0.000002 0.000002 0.000003 0.520543 4.498907 -7.095808 0.197985 1.642510 -13.745563 -0.000002 0.000001 -0.000002 1.611883 4.768287 -27.618497 0.172421 1.534243 -12.823013 -0.000000 -0.000001 0.000000 2.523314 5.634968 -37.254604 0.347578 2.164025 -18.247407 -0.000001 0.000001 -0.000002 4.960666 7.029348 -55.395296 0.640140 -1.170793 -25.183929 -0.000001 -0.000001 0.000001 0.000001 0.000000 0.000001 0.839984 21.082508 8.072307 -32.372952 -24.852693 50.763257 0.000017 25.748382 -0.000022 52.960003 13.541776 -6.199793 -3.594741 -21.092714 -8.215474 9.863431 -12.564398 2.777362 -0.000001 0.000000 -0.000000 0.681620 4.454558 -9.870061 0.071446 -0.996272 8.203850 0.000000 0.000001 -0.000001 4.847851 -6.706290 63.986783 7.252681 -6.941588 92.517323 -0.000000 -0.000001 0.000001 6.922514 -6.958868 86.592073 7.312263 -6.938755 93.010340 -0.000000 -0.000001 -0.000003 3.552504 -6.774809 86.885614 5.549889 -6.806749 78.362132 -0.000002 0.000004 -0.000002 -0.000000 -0.000002 -0.000001 -0.000001 -0.000000 0.000000 0.000001 -0.000000 0.000000 -0.000001 -0.000000 0.000000 -0.000001 -0.000000 0.000000 -0.000001 -0.000000 0.000000 0.000001 -0.000000 0.000000 -0.000001 -0.000000 0.000000 -0.000001 -0.000000 0.000000 -0.000001 -0.000000 0.000000 0.000001 -0.000000 0.000000 -0.000000 -0.000000 0.000000 -0.000000 -0.000000 0.000000 -0.000000 -0.000000 0.000000 
2.032663 69.165977 3.939738 5.975638 0.237870 -2.725863 0.000000 0.000000 0.000000 -19.726635 10.608225 3.664701 30.874665 0.210407 0.758602 -17.886828 -0.103377 0.792398 -0.000000 0.000000 0.000000 0.000001 -0.000001 0.000000 -22.494502 -7.069761 -4.788720 34.326523 -10.475618 1.472081 -10.452005 -9.915477 7.823663 0.000000 0.000000 -0.000000 0.000001 -0.000000 -0.000000 5.203758 2.553041 0.153628 2.893124 1.325039 0.142225 2.894632 1.319596 0.155285 -1.066290 -0.764764 -8.131554 -16.447790 -9.823073 -10.003230 -0.000000 0.000000 -0.000001 -0.000000 0.000000 -0.000001 -0.000000 0.000000 -0.000001 -0.000000 0.000000 0.000001 -0.000000 0.000000 0.000001 -0.000000 0.000000 0.000001 -0.000000 0.000000 0.000001 -0.000000 0.000000 -0.000001 -0.000000 0.000000 -0.000001 0.645177 3.436069 -10.619088 -9.964718 6.957803 -70.997180 0.000003 -6.768476 -0.000017 44.530340 -0.134687 5.869655 -5.998506 5.023761 5.517853 19.057380 24.090928 0.176083 0.000001 -0.000003 0.000000 0.522878 4.505489 -7.118786 0.199780 1.649821 -13.807925 -0.000002 0.000003 -0.000003 1.622880 4.788243 -27.630965 0.172417 1.534234 -12.823058 -0.000000 0.000002 0.000001 2.521155 5.633293 -37.232249 0.347177 2.162779 -18.236398 0.000002 0.000002 -0.000000 4.969648 7.031142 -55.481207 0.641462 -1.167968 -25.209658 -0.000002 0.000001 -0.000001 -0.000002 0.000000 -0.000001 0.751882 19.035363 8.493834 -26.671610 -22.283407 53.659735 -0.000012 22.196272 0.000020 53.904614 13.535737 -7.489278 -3.650987 -21.005306 -8.221053 9.918744 -12.693970 2.795742 -0.000003 -0.000002 -0.000001 0.650759 4.440564 -9.382100 0.072777 -1.005336 8.279270 -0.000001 -0.000003 0.000002 4.871782 -6.715988 64.078881 7.228411 -6.942597 92.316536 0.000002 0.000003 -0.000002 6.940874 -6.961017 86.443871 7.307836 -6.938969 92.973778 -0.000001 -0.000001 -0.000002 3.665921 -6.771587 86.699553 5.544325 -6.805602 78.315236 0.000000 0.000005 -0.000002 -0.000000 0.000001 0.000000 -0.000001 -0.000000 -0.000000 0.000001 -0.000001 -0.000000 -0.000001 -0.000000 -0.000000 -0.000001 -0.000000 -0.000000 -0.000001 -0.000000 -0.000000 0.000001 -0.000001 -0.000000 -0.000001 -0.000000 -0.000000 -0.000001 -0.000000 -0.000000 -0.000001 -0.000000 -0.000000 0.000001 -0.000001 -0.000000 0.000000 0.000000 0.000000 0.000000 0.000000 0.000000 0.000000 0.000000 0.000000 
2.200261 69.140083 4.135823 5.369192 -0.636874 -3.054379 0.000000 0.000000 -0.000000 -19.136428 10.805671 4.030294 31.381188 0.738298 0.722329 -18.494452 -0.124820 0.756834 0.000000 -0.000000 -0.000000 0.000000 -0.000001 -0.000000 -22.473744 -7.210579 -4.791631 35.365886 -10.554145 1.546903 -10.139653 -8.811802 8.143961 -0.000000 0.000001 0.000000 0.000002 0.000001 -0.000000 4.974129 2.350274 -0.141291 2.766821 1.224864 -0.008668 2.768531 1.220451 0.003067 -1.543500 -1.134669 -8.358526 -16.555023 -11.937887 -11.025267 -0.000000 -0.000000 -0.000001 -0.000000 -0.000000 -0.000001 -0.000000 -0.000000 -0.000001 -0.000000 -0.000000 0.000001 -0.000000 -0.000000 0.000001 -0.000000 -0.000000 0.000001 -0.000000 -0.000000 0.000001 -0.000000 -0.000000 -0.000001 -0.000000 -0.000000 -0.000001 0.637743 3.220254 -10.521747 -8.935052 7.471731 -70.609512 -0.000001 -7.846973 -0.000008 44.592099 0.640276 5.028313 -5.979098 5.053780 5.561998 19.056926 24.089179 0.176358 -0.000000 -0.000000 0.000002 0.523317 4.513142 -7.110140 0.199750 1.649693 -13.806976 -0.000003 -0.000001 -0.000002 1.632610 4.808951 -27.597019 0.172408 1.534267 -12.823370 -0.000002 -0.000001 -0.000001 2.533965 5.650368 -37.226143 0.346884 2.161922 -18.228856 0.000001 0.000006 -0.000002 4.963708 7.026741 -55.488570 0.641308 -1.168311 -25.206764 -0.000001 -0.000000 -0.000004 0.000002 -0.000001 0.000000 0.687229 16.540562 8.822722 -21.312550 -19.105127 56.590829 0.000001 18.871242 0.000006 53.430753 14.041405 -9.184216 -3.766469 -20.833262 -8.252451 10.012470 -12.913073 2.826965 -0.000000 0.000000 -0.000000 0.635334 4.376728 -9.304844 0.074709 -1.018676 8.389725 -0.000001 0.000001 -0.000001 4.883112 -6.726290 63.847468 7.184053 -6.944261 91.949646 -0.000000 -0.000001 -0.000001 6.906712 -6.961904 86.026615 7.286769 -6.940024 92.799458 0.000001 0.000002 0.000001 3.735138 -6.773506 86.657800 5.506722 -6.797791 77.997550 -0.000001 0.000001 -0.000003 0.000000 0.000001 -0.000001 -0.000001 0.000000 0.000000 -0.000001 -0.000000 0.000000 -0.000001 0.000000 0.000000 -0.000001 0.000000 0.000000 -0.000001 0.000000 0.000000 -0.000001 -0.000000 0.000000 -0.000001 0.000000 0.000000 -0.000001 0.000000 0.000000 -0.000001 0.000000 0.000000 -0.000001 -0.000000 0.000000 0.000000 0.000000 -0.000000 0.000000 0.000000 -0.000000 0.000000 0.000000 -0.000000 
